<svg width="104" height="104" viewBox="0 0 104 104" fill="none" xmlns="http://www.w3.org/2000/svg">
<path fill-rule="evenodd" clip-rule="evenodd" d="M8 4C8 6.20914 6.20914 8 4 8C1.79086 8 0 6.20914 0 4C0 1.79086 1.79086 0 4 0C6.20914 0 8 1.79086 8 4ZM4 72C6.20914 72 8 70.2091 8 68C8 65.7909 6.20914 64 4 64C1.79086 64 0 65.7909 0 68C0 70.2091 1.79086 72 4 72ZM36 72C38.2091 72 40 70.2091 40 68C40 65.7909 38.2091 64 36 64C33.7909 64 32 65.7909 32 68C32 70.2091 33.7909 72 36 72ZM72 68C72 70.2091 70.2091 72 68 72C65.7909 72 64 70.2091 64 68C64 65.7909 65.7909 64 68 64C70.2091 64 72 65.7909 72 68ZM100 72C102.209 72 104 70.2091 104 68C104 65.7909 102.209 64 100 64C97.7909 64 96 65.7909 96 68C96 70.2091 97.7909 72 100 72ZM8 100C8 102.209 6.20914 104 4 104C1.79086 104 0 102.209 0 100C0 97.7909 1.79086 96 4 96C6.20914 96 8 97.7909 8 100ZM36 104C38.2091 104 40 102.209 40 100C40 97.7909 38.2091 96 36 96C33.7909 96 32 97.7909 32 100C32 102.209 33.7909 104 36 104ZM72 100C72 102.209 70.2091 104 68 104C65.7909 104 64 102.209 64 100C64 97.7909 65.7909 96 68 96C70.2091 96 72 97.7909 72 100ZM100 104C102.209 104 104 102.209 104 100C104 97.7909 102.209 96 100 96C97.7909 96 96 97.7909 96 100C96 102.209 97.7909 104 100 104ZM36 8C38.2091 8 40 6.20914 40 4C40 1.79086 38.2091 0 36 0C33.7909 0 32 1.79086 32 4C32 6.20914 33.7909 8 36 8ZM72 4C72 6.20914 70.2091 8 68 8C65.7909 8 64 6.20914 64 4C64 1.79086 65.7909 0 68 0C70.2091 0 72 1.79086 72 4ZM100 8C102.209 8 104 6.20914 104 4C104 1.79086 102.209 0 100 0C97.7909 0 96 1.79086 96 4C96 6.20914 97.7909 8 100 8ZM8 36C8 38.2091 6.20914 40 4 40C1.79086 40 0 38.2091 0 36C0 33.7909 1.79086 32 4 32C6.20914 32 8 33.7909 8 36ZM36 40C38.2091 40 40 38.2091 40 36C40 33.7909 38.2091 32 36 32C33.7909 32 32 33.7909 32 36C32 38.2091 33.7909 40 36 40ZM72 36C72 38.2091 70.2091 40 68 40C65.7909 40 64 38.2091 64 36C64 33.7909 65.7909 32 68 32C70.2091 32 72 33.7909 72 36ZM100 40C102.209 40 104 38.2091 104 36C104 33.7909 102.209 32 100 32C97.7909 32 96 33.7909 96 36C96 38.2091 97.7909 40 100 40Z" fill="#54E6AF"/>
</svg>
